<?xml version="1.0" encoding="UTF-8" standalone="no"?>
<!DOCTYPE svg PUBLIC "-//W3C//DTD SVG 1.1//EN"
 "http://www.w3.org/Graphics/SVG/1.1/DTD/svg11.dtd">
<!-- Generated by graphviz version 2.43.0 (0)
 -->
<!-- Title: G Pages: 1 -->
<svg width="436pt" height="878pt"
 viewBox="0.00 0.00 436.00 878.00" xmlns="http://www.w3.org/2000/svg" xmlns:xlink="http://www.w3.org/1999/xlink">
<g id="graph0" class="graph" transform="scale(1 1) rotate(0) translate(4 874)">
<title>G</title>
<polygon fill="white" stroke="transparent" points="-4,4 -4,-874 432,-874 432,4 -4,4"/>
<g id="clust1" class="cluster">
<title>cluster_Global</title>
<path fill="none" stroke="gray" d="M20,-8C20,-8 408,-8 408,-8 414,-8 420,-14 420,-20 420,-20 420,-850 420,-850 420,-856 414,-862 408,-862 408,-862 20,-862 20,-862 14,-862 8,-856 8,-850 8,-850 8,-20 8,-20 8,-14 14,-8 20,-8"/>
<text text-anchor="middle" x="214" y="-849.2" font-family="Times,serif" font-size="11.00" fill="gray">Global</text>
</g>
<g id="clust2" class="cluster">
<title>cluster_\homework</title>
<path fill="none" stroke="gray" d="M28,-16C28,-16 400,-16 400,-16 406,-16 412,-22 412,-28 412,-28 412,-822 412,-822 412,-828 406,-834 400,-834 400,-834 28,-834 28,-834 22,-834 16,-828 16,-822 16,-822 16,-28 16,-28 16,-22 22,-16 28,-16"/>
<text text-anchor="middle" x="214" y="-821.2" font-family="Times,serif" font-size="11.00" fill="gray">homework</text>
</g>
<g id="clust3" class="cluster">
<title>cluster_\homework\core</title>
<path fill="none" stroke="gray" d="M36,-24C36,-24 392,-24 392,-24 398,-24 404,-30 404,-36 404,-36 404,-794 404,-794 404,-800 398,-806 392,-806 392,-806 36,-806 36,-806 30,-806 24,-800 24,-794 24,-794 24,-36 24,-36 24,-30 30,-24 36,-24"/>
<text text-anchor="middle" x="214" y="-793.2" font-family="Times,serif" font-size="11.00" fill="gray">core</text>
</g>
<g id="clust4" class="cluster">
<title>cluster_\homework\core\query</title>
<path fill="none" stroke="gray" d="M44,-382C44,-382 384,-382 384,-382 390,-382 396,-388 396,-394 396,-394 396,-766 396,-766 396,-772 390,-778 384,-778 384,-778 44,-778 44,-778 38,-778 32,-772 32,-766 32,-766 32,-394 32,-394 32,-388 38,-382 44,-382"/>
<text text-anchor="middle" x="214" y="-765.2" font-family="Times,serif" font-size="11.00" fill="gray">query</text>
</g>
<g id="clust5" class="cluster">
<title>cluster_\homework\core\db</title>
<path fill="none" stroke="gray" d="M67.5,-32C67.5,-32 384,-32 384,-32 390,-32 396,-38 396,-44 396,-44 396,-362 396,-362 396,-368 390,-374 384,-374 384,-374 67.5,-374 67.5,-374 61.5,-374 55.5,-368 55.5,-362 55.5,-362 55.5,-44 55.5,-44 55.5,-38 61.5,-32 67.5,-32"/>
<text text-anchor="middle" x="225.75" y="-361.2" font-family="Times,serif" font-size="11.00" fill="gray">db</text>
</g>
<!-- \\homework\\core\\query\\From -->
<g id="node1" class="node">
<title>\\homework\\core\\query\\From</title>
<polygon fill="none" stroke="black" points="356,-696 302,-696 302,-660 356,-660 356,-696"/>
<text text-anchor="middle" x="329" y="-675.2" font-family="Courier,monospace" font-size="11.00">From</text>
</g>
<!-- \\homework\\core\\query\\WhereInterface -->
<g id="node7" class="node">
<title>\\homework\\core\\query\\WhereInterface</title>
<polygon fill="none" stroke="black" points="174.5,-696 63.5,-696 63.5,-660 174.5,-660 174.5,-696"/>
<text text-anchor="middle" x="119" y="-675.2" font-family="Courier,monospace" font-size="11.00">WhereInterface</text>
</g>
<!-- \\homework\\core\\query\\From&#45;&gt;\\homework\\core\\query\\WhereInterface -->
<g id="edge1" class="edge">
<title>\\homework\\core\\query\\From&#45;&gt;\\homework\\core\\query\\WhereInterface</title>
<path fill="none" stroke="black" stroke-dasharray="1,5" d="M301.66,-678C272.39,-678 224.07,-678 184.62,-678"/>
<polygon fill="none" stroke="black" points="184.54,-674.5 174.54,-678 184.54,-681.5 184.54,-674.5"/>
</g>
<!-- \\homework\\core\\query\\BuildInterface -->
<g id="node11" class="node">
<title>\\homework\\core\\query\\BuildInterface</title>
<polygon fill="none" stroke="black" points="174.5,-642 63.5,-642 63.5,-606 174.5,-606 174.5,-642"/>
<text text-anchor="middle" x="119" y="-621.2" font-family="Courier,monospace" font-size="11.00">BuildInterface</text>
</g>
<!-- \\homework\\core\\query\\From&#45;&gt;\\homework\\core\\query\\BuildInterface -->
<g id="edge2" class="edge">
<title>\\homework\\core\\query\\From&#45;&gt;\\homework\\core\\query\\BuildInterface</title>
<path fill="none" stroke="black" stroke-dasharray="1,5" d="M301.66,-671.16C272.33,-663.55 223.87,-650.97 184.37,-640.71"/>
<polygon fill="none" stroke="black" points="185.1,-637.28 174.54,-638.16 183.34,-644.06 185.1,-637.28"/>
</g>
<!-- \\homework\\core\\query\\QueryBuilder -->
<g id="node2" class="node">
<title>\\homework\\core\\query\\QueryBuilder</title>
<polygon fill="none" stroke="black" points="378,-750 280,-750 280,-714 378,-714 378,-750"/>
<text text-anchor="middle" x="329" y="-729.2" font-family="Courier,monospace" font-size="11.00">QueryBuilder</text>
</g>
<!-- \\homework\\core\\query\\QueryBuilderInterface -->
<g id="node10" class="node">
<title>\\homework\\core\\query\\QueryBuilderInterface</title>
<polygon fill="none" stroke="black" points="198,-750 40,-750 40,-714 198,-714 198,-750"/>
<text text-anchor="middle" x="119" y="-729.2" font-family="Courier,monospace" font-size="11.00">QueryBuilderInterface</text>
</g>
<!-- \\homework\\core\\query\\QueryBuilder&#45;&gt;\\homework\\core\\query\\QueryBuilderInterface -->
<g id="edge3" class="edge">
<title>\\homework\\core\\query\\QueryBuilder&#45;&gt;\\homework\\core\\query\\QueryBuilderInterface</title>
<path fill="none" stroke="black" stroke-dasharray="1,5" d="M279.76,-732C258.45,-732 232.71,-732 208.18,-732"/>
<polygon fill="none" stroke="black" points="208.12,-728.5 198.12,-732 208.12,-735.5 208.12,-728.5"/>
</g>
<!-- \\homework\\core\\query\\AndCondition -->
<g id="node3" class="node">
<title>\\homework\\core\\query\\AndCondition</title>
<polygon fill="none" stroke="black" points="378,-642 280,-642 280,-606 378,-606 378,-642"/>
<text text-anchor="middle" x="329" y="-621.2" font-family="Courier,monospace" font-size="11.00">AndCondition</text>
</g>
<!-- \\homework\\core\\query\\OrInterface -->
<g id="node9" class="node">
<title>\\homework\\core\\query\\OrInterface</title>
<polygon fill="none" stroke="black" points="164.5,-588 73.5,-588 73.5,-552 164.5,-552 164.5,-588"/>
<text text-anchor="middle" x="119" y="-567.2" font-family="Courier,monospace" font-size="11.00">OrInterface</text>
</g>
<!-- \\homework\\core\\query\\AndCondition&#45;&gt;\\homework\\core\\query\\OrInterface -->
<g id="edge4" class="edge">
<title>\\homework\\core\\query\\AndCondition&#45;&gt;\\homework\\core\\query\\OrInterface</title>
<path fill="none" stroke="black" stroke-dasharray="1,5" d="M279.76,-611.48C248.33,-603.32 207.25,-592.65 174.62,-584.18"/>
<polygon fill="none" stroke="black" points="175.34,-580.75 164.78,-581.63 173.58,-587.53 175.34,-580.75"/>
</g>
<!-- \\homework\\core\\query\\AndCondition&#45;&gt;\\homework\\core\\query\\BuildInterface -->
<g id="edge5" class="edge">
<title>\\homework\\core\\query\\AndCondition&#45;&gt;\\homework\\core\\query\\BuildInterface</title>
<path fill="none" stroke="black" stroke-dasharray="1,5" d="M279.76,-624C251.51,-624 215.47,-624 184.77,-624"/>
<polygon fill="none" stroke="black" points="184.58,-620.5 174.58,-624 184.58,-627.5 184.58,-620.5"/>
</g>
<!-- \\homework\\core\\query\\OrCondition -->
<g id="node4" class="node">
<title>\\homework\\core\\query\\OrCondition</title>
<polygon fill="none" stroke="black" points="374.5,-588 283.5,-588 283.5,-552 374.5,-552 374.5,-588"/>
<text text-anchor="middle" x="329" y="-567.2" font-family="Courier,monospace" font-size="11.00">OrCondition</text>
</g>
<!-- \\homework\\core\\query\\AndInterface -->
<g id="node8" class="node">
<title>\\homework\\core\\query\\AndInterface</title>
<polygon fill="none" stroke="black" points="168,-534 70,-534 70,-498 168,-498 168,-534"/>
<text text-anchor="middle" x="119" y="-513.2" font-family="Courier,monospace" font-size="11.00">AndInterface</text>
</g>
<!-- \\homework\\core\\query\\OrCondition&#45;&gt;\\homework\\core\\query\\AndInterface -->
<g id="edge6" class="edge">
<title>\\homework\\core\\query\\OrCondition&#45;&gt;\\homework\\core\\query\\AndInterface</title>
<path fill="none" stroke="black" stroke-dasharray="1,5" d="M283.38,-558.42C252.66,-550.44 211.54,-539.76 178.24,-531.12"/>
<polygon fill="none" stroke="black" points="178.73,-527.63 168.17,-528.51 176.97,-534.41 178.73,-527.63"/>
</g>
<!-- \\homework\\core\\query\\OrCondition&#45;&gt;\\homework\\core\\query\\BuildInterface -->
<g id="edge7" class="edge">
<title>\\homework\\core\\query\\OrCondition&#45;&gt;\\homework\\core\\query\\BuildInterface</title>
<path fill="none" stroke="black" stroke-dasharray="1,5" d="M283.38,-581.58C254.5,-589.08 216.42,-598.97 184.3,-607.31"/>
<polygon fill="none" stroke="black" points="183.33,-603.94 174.53,-609.84 185.09,-610.72 183.33,-603.94"/>
</g>
<!-- \\homework\\core\\query\\Where -->
<g id="node5" class="node">
<title>\\homework\\core\\query\\Where</title>
<polygon fill="none" stroke="black" points="356,-534 302,-534 302,-498 356,-498 356,-534"/>
<text text-anchor="middle" x="329" y="-513.2" font-family="Courier,monospace" font-size="11.00">Where</text>
</g>
<!-- \\homework\\core\\query\\Where&#45;&gt;\\homework\\core\\query\\AndInterface -->
<g id="edge9" class="edge">
<title>\\homework\\core\\query\\Where&#45;&gt;\\homework\\core\\query\\AndInterface</title>
<path fill="none" stroke="black" stroke-dasharray="1,5" d="M301.66,-516C270.82,-516 218.82,-516 178.34,-516"/>
<polygon fill="none" stroke="black" points="178.31,-512.5 168.31,-516 178.31,-519.5 178.31,-512.5"/>
</g>
<!-- \\homework\\core\\query\\Where&#45;&gt;\\homework\\core\\query\\OrInterface -->
<g id="edge10" class="edge">
<title>\\homework\\core\\query\\Where&#45;&gt;\\homework\\core\\query\\OrInterface</title>
<path fill="none" stroke="black" stroke-dasharray="1,5" d="M301.66,-522.84C269.85,-531.1 215.51,-545.2 174.53,-555.84"/>
<polygon fill="none" stroke="black" points="173.49,-552.5 164.69,-558.4 175.25,-559.27 173.49,-552.5"/>
</g>
<!-- \\homework\\core\\query\\Where&#45;&gt;\\homework\\core\\query\\BuildInterface -->
<g id="edge8" class="edge">
<title>\\homework\\core\\query\\Where&#45;&gt;\\homework\\core\\query\\BuildInterface</title>
<path fill="none" stroke="black" stroke-dasharray="1,5" d="M301.71,-526.85C291.56,-531.39 280.01,-537.01 270,-543 235.68,-563.55 233.32,-578.23 198,-597 193.53,-599.38 188.8,-601.61 183.98,-603.7"/>
<polygon fill="none" stroke="black" points="182.56,-600.5 174.63,-607.53 185.21,-606.98 182.56,-600.5"/>
</g>
<!-- \\homework\\core\\query\\SelectInterface -->
<g id="node6" class="node">
<title>\\homework\\core\\query\\SelectInterface</title>
<polygon fill="none" stroke="black" points="388,-480 270,-480 270,-444 388,-444 388,-480"/>
<text text-anchor="middle" x="329" y="-459.2" font-family="Courier,monospace" font-size="11.00">SelectInterface</text>
</g>
<!-- \\homework\\core\\query\\FromInterface -->
<g id="node12" class="node">
<title>\\homework\\core\\query\\FromInterface</title>
<polygon fill="none" stroke="black" points="381,-426 277,-426 277,-390 381,-390 381,-426"/>
<text text-anchor="middle" x="329" y="-405.2" font-family="Courier,monospace" font-size="11.00">FromInterface</text>
</g>
<!-- \\homework\\core\\db\\DbAbstract -->
<g id="node13" class="node">
<title>\\homework\\core\\db\\DbAbstract</title>
<polygon fill="none" stroke="black" points="161,-292 77,-292 77,-256 161,-256 161,-292"/>
<text text-anchor="start" x="85" y="-277.2" font-family="Courier,monospace" font-size="11.00">«abstract»</text>
<text text-anchor="start" x="85" y="-265.2" font-family="Courier,monospace" font-size="11.00">DbAbstract</text>
</g>
<!-- \\homework\\core\\db\\Postgres -->
<g id="node14" class="node">
<title>\\homework\\core\\db\\Postgres</title>
<polygon fill="none" stroke="black" points="364.5,-76 293.5,-76 293.5,-40 364.5,-40 364.5,-76"/>
<text text-anchor="middle" x="329" y="-55.2" font-family="Courier,monospace" font-size="11.00">Postgres</text>
</g>
<!-- \\homework\\core\\db\\QueryInterface -->
<g id="node20" class="node">
<title>\\homework\\core\\db\\QueryInterface</title>
<polygon fill="none" stroke="black" points="174.5,-130 63.5,-130 63.5,-94 174.5,-94 174.5,-130"/>
<text text-anchor="middle" x="119" y="-109.2" font-family="Courier,monospace" font-size="11.00">QueryInterface</text>
</g>
<!-- \\homework\\core\\db\\Postgres&#45;&gt;\\homework\\core\\db\\QueryInterface -->
<g id="edge11" class="edge">
<title>\\homework\\core\\db\\Postgres&#45;&gt;\\homework\\core\\db\\QueryInterface</title>
<path fill="none" stroke="black" stroke-dasharray="1,5" d="M293.19,-67.04C263.59,-74.72 220.3,-85.96 184.41,-95.28"/>
<polygon fill="none" stroke="black" points="183.3,-91.95 174.51,-97.85 185.06,-98.72 183.3,-91.95"/>
</g>
<!-- \\homework\\core\\db\\OracleFactory -->
<g id="node15" class="node">
<title>\\homework\\core\\db\\OracleFactory</title>
<polygon fill="none" stroke="black" points="381,-238 277,-238 277,-202 381,-202 381,-238"/>
<text text-anchor="middle" x="329" y="-217.2" font-family="Courier,monospace" font-size="11.00">OracleFactory</text>
</g>
<!-- \\homework\\core\\db\\OracleFactory&#45;&gt;\\homework\\core\\db\\DbAbstract -->
<g id="edge12" class="edge">
<title>\\homework\\core\\db\\OracleFactory&#45;&gt;\\homework\\core\\db\\DbAbstract</title>
<path fill="none" stroke="black" d="M276.85,-233.28C244.72,-241.62 203.43,-252.34 171.28,-260.69"/>
<polygon fill="none" stroke="black" points="169.98,-257.41 161.18,-263.31 171.74,-264.18 169.98,-257.41"/>
</g>
<!-- \\homework\\core\\db\\SqliteFactory -->
<g id="node16" class="node">
<title>\\homework\\core\\db\\SqliteFactory</title>
<polygon fill="none" stroke="black" points="381,-346 277,-346 277,-310 381,-310 381,-346"/>
<text text-anchor="middle" x="329" y="-325.2" font-family="Courier,monospace" font-size="11.00">SqliteFactory</text>
</g>
<!-- \\homework\\core\\db\\SqliteFactory&#45;&gt;\\homework\\core\\db\\DbAbstract -->
<g id="edge13" class="edge">
<title>\\homework\\core\\db\\SqliteFactory&#45;&gt;\\homework\\core\\db\\DbAbstract</title>
<path fill="none" stroke="black" d="M276.85,-314.72C244.72,-306.38 203.43,-295.66 171.28,-287.31"/>
<polygon fill="none" stroke="black" points="171.74,-283.82 161.18,-284.69 169.98,-290.59 171.74,-283.82"/>
</g>
<!-- \\homework\\core\\db\\PostgresFactory -->
<g id="node17" class="node">
<title>\\homework\\core\\db\\PostgresFactory</title>
<polygon fill="none" stroke="black" points="388,-292 270,-292 270,-256 388,-256 388,-292"/>
<text text-anchor="middle" x="329" y="-271.2" font-family="Courier,monospace" font-size="11.00">PostgresFactory</text>
</g>
<!-- \\homework\\core\\db\\PostgresFactory&#45;&gt;\\homework\\core\\db\\DbAbstract -->
<g id="edge14" class="edge">
<title>\\homework\\core\\db\\PostgresFactory&#45;&gt;\\homework\\core\\db\\DbAbstract</title>
<path fill="none" stroke="black" d="M269.78,-274C238.82,-274 201.1,-274 171.25,-274"/>
<polygon fill="none" stroke="black" points="171.05,-270.5 161.05,-274 171.05,-277.5 171.05,-270.5"/>
</g>
<!-- \\homework\\core\\db\\Sqlite -->
<g id="node18" class="node">
<title>\\homework\\core\\db\\Sqlite</title>
<polygon fill="none" stroke="black" points="357.5,-184 300.5,-184 300.5,-148 357.5,-148 357.5,-184"/>
<text text-anchor="middle" x="329" y="-163.2" font-family="Courier,monospace" font-size="11.00">Sqlite</text>
</g>
<!-- \\homework\\core\\db\\Sqlite&#45;&gt;\\homework\\core\\db\\QueryInterface -->
<g id="edge15" class="edge">
<title>\\homework\\core\\db\\Sqlite&#45;&gt;\\homework\\core\\db\\QueryInterface</title>
<path fill="none" stroke="black" stroke-dasharray="1,5" d="M300.38,-158.83C270.94,-151.19 223.29,-138.82 184.37,-128.71"/>
<polygon fill="none" stroke="black" points="185.23,-125.32 174.67,-126.19 183.47,-132.09 185.23,-125.32"/>
</g>
<!-- \\homework\\core\\db\\Oracle -->
<g id="node19" class="node">
<title>\\homework\\core\\db\\Oracle</title>
<polygon fill="none" stroke="black" points="357.5,-130 300.5,-130 300.5,-94 357.5,-94 357.5,-130"/>
<text text-anchor="middle" x="329" y="-109.2" font-family="Courier,monospace" font-size="11.00">Oracle</text>
</g>
<!-- \\homework\\core\\db\\Oracle&#45;&gt;\\homework\\core\\db\\QueryInterface -->
<g id="edge16" class="edge">
<title>\\homework\\core\\db\\Oracle&#45;&gt;\\homework\\core\\db\\QueryInterface</title>
<path fill="none" stroke="black" stroke-dasharray="1,5" d="M300.38,-112C271.06,-112 223.7,-112 184.86,-112"/>
<polygon fill="none" stroke="black" points="184.67,-108.5 174.67,-112 184.67,-115.5 184.67,-108.5"/>
</g>
</g>
</svg>
